P2
# Created by GIMP version 2.10.14 PNM plug-in
20 20
65535
64764
61680
55769
47802
38293
28013
18504
10282
4366
1034
1034
4366
10282
18504
28013
38036
47545
55769
61680
64764
61680
58853
53456
46260
37522
28528
20046
12594
7196
4366
4366
7196
12594
19790
28528
37522
46003
53456
58853
61680
55769
53456
49344
43433
36751
29555
22615
16704
12594
10282
10282
12594
16704
22615
29299
36494
43433
49087
53456
55769
47545
46003
43433
39578
35209
30584
26215
22615
20046
18504
18504
20046
22615
26215
30584
35209
39578
43433
46003
47545
38036
37522
36494
35209
33667
32125
30584
29555
28528
28013
28013
28528
29555
30584
32125
33667
35209
36494
37522
38036
28013
28528
29299
30584
32125
33667
35209
36751
37522
38293
38293
37522
36751
35209
33667
32125
30584
29299
28528
28013
18504
19790
22359
26215
30584
35209
39578
43433
46260
47802
47802
46260
43433
39835
35209
30584
26215
22615
19790
18504
10282
12336
16704
22359
29299
36494
43433
49344
53456
55769
55769
53713
49344
43433
36751
29555
22615
16704
12594
10282
4366
7196
12336
19790
28528
37522
46003
53456
58853
61680
61680
58853
53713
46260
37522
28528
19790
12594
7196
4366
1034
4366
10282
18504
28013
38036
47545
55769
61680
64764
64764
61680
55769
47802
38293
28013
18504
10282
4366
1034
1034
4366
10282
18504
28013
38036
47545
55769
61680
64764
64764
61680
55769
47802
38293
28013
18504
10282
4366
1034
4366
7196
12594
19790
28528
37522
46003
53456
58853
61680
61680
58853
53456
46260
37522
28528
20046
12594
7196
4366
10282
12594
16704
22615
29299
36494
43433
49087
53456
55769
55769
53456
49344
43433
36751
29555
22615
16704
12594
10282
18504
20046
22615
26215
30584
35209
39578
43433
46003
47545
47545
46003
43433
39578
35209
30584
26215
22615
20046
18504
28013
28528
29555
30584
32125
33667
35209
36494
37522
38036
38036
37522
36494
35209
33667
32125
30584
29555
28528
28013
38293
37522
36751
35209
33667
32125
30584
29299
28528
28013
28013
28528
29299
30584
32125
33667
35209
36751
37522
38293
47802
46260
43433
39835
35209
30584
26215
22615
19790
18504
18504
19790
22359
26215
30584
35209
39578
43433
46260
47802
55769
53713
49344
43433
36751
29555
22615
16704
12594
10282
10282
12336
16704
22359
29299
36494
43433
49344
53456
55769
61680
58853
53713
46260
37522
28528
19790
12594
7196
4366
4366
7196
12336
19790
28528
37522
46003
53456
58853
61680
64764
61680
55769
47802
38293
28013
18504
10282
4366
1034
1034
4366
10282
18504
28013
38036
47545
55769
61680
64764
