P2
# Created by GIMP version 2.10.14 PNM plug-in
20 20
255
252
240
217
186
149
109
72
40
17
4
4
17
40
72
109
148
185
217
240
252
240
229
208
180
146
111
78
49
28
17
17
28
49
77
111
146
179
208
229
240
217
208
192
169
143
115
88
65
49
40
40
49
65
88
114
142
169
191
208
217
185
179
169
154
137
119
102
88
78
72
72
78
88
102
119
137
154
169
179
185
148
146
142
137
131
125
119
115
111
109
109
111
115
119
125
131
137
142
146
148
109
111
114
119
125
131
137
143
146
149
149
146
143
137
131
125
119
114
111
109
72
77
87
102
119
137
154
169
180
186
186
180
169
155
137
119
102
88
77
72
40
48
65
87
114
142
169
192
208
217
217
209
192
169
143
115
88
65
49
40
17
28
48
77
111
146
179
208
229
240
240
229
209
180
146
111
77
49
28
17
4
17
40
72
109
148
185
217
240
252
252
240
217
186
149
109
72
40
17
4
4
17
40
72
109
148
185
217
240
252
252
240
217
186
149
109
72
40
17
4
17
28
49
77
111
146
179
208
229
240
240
229
208
180
146
111
78
49
28
17
40
49
65
88
114
142
169
191
208
217
217
208
192
169
143
115
88
65
49
40
72
78
88
102
119
137
154
169
179
185
185
179
169
154
137
119
102
88
78
72
109
111
115
119
125
131
137
142
146
148
148
146
142
137
131
125
119
115
111
109
149
146
143
137
131
125
119
114
111
109
109
111
114
119
125
131
137
143
146
149
186
180
169
155
137
119
102
88
77
72
72
77
87
102
119
137
154
169
180
186
217
209
192
169
143
115
88
65
49
40
40
48
65
87
114
142
169
192
208
217
240
229
209
180
146
111
77
49
28
17
17
28
48
77
111
146
179
208
229
240
252
240
217
186
149
109
72
40
17
4
4
17
40
72
109
148
185
217
240
252
